<?xml version="1.0" encoding="UTF-8"?>
<svg version="1.1" xmlns="http://www.w3.org/2000/svg" width="32" height="32">
<path d="M0 0 C1.71703125 0.10054688 1.71703125 0.10054688 3.46875 0.203125 C6.5 0.75 6.5 0.75 8.3984375 2.03125 C9.79336756 4.20773661 9.77744829 5.43528174 9.625 8 C9.47829424 12.07441904 9.81657511 15.7348788 10.5 19.75 C9.18 20.08 7.86 20.41 6.5 20.75 C5.84 19.1 5.18 17.45 4.5 15.75 C3.51 18.225 3.51 18.225 2.5 20.75 C-0.91611051 21.62980311 -3.97590698 22.1018993 -7.5 21.75 C-10.93055642 19.71036765 -12.89524604 17.39821763 -14.5 13.75 C-14.64126126 9.38374292 -13.889261 5.45011775 -11.0859375 2.01953125 C-7.5968996 -0.7734178 -4.23868391 -0.28639756 0 0 Z M3.5 4.75 C3.5 6.07 3.5 7.39 3.5 8.75 C4.16 8.75 4.82 8.75 5.5 8.75 C5.5 7.43 5.5 6.11 5.5 4.75 C4.84 4.75 4.18 4.75 3.5 4.75 Z " fill="#CD4717" transform="translate(17.5,5.25)"/>
<path d="M0 0 C7 0 7 0 8.9296875 1.234375 C10.26633058 3.43934826 10.27720008 4.68945751 10.125 7.25 C9.97829424 11.32441904 10.31657511 14.9848788 11 19 C9.68 19.33 8.36 19.66 7 20 C6.34 18.35 5.68 16.7 5 15 C4.67 16.32 4.34 17.64 4 19 C2.68 19 1.36 19 0 19 C0 12.73 0 6.46 0 0 Z M4 4 C4 5.32 4 6.64 4 8 C4.66 8 5.32 8 6 8 C6 6.68 6 5.36 6 4 C5.34 4 4.68 4 4 4 Z " fill="#ECEAE9" transform="translate(17,6)"/>
<path d="M0 0 C1.32 0.33 2.64 0.66 4 1 C4 2.32 4 3.64 4 5 C4.66 5 5.32 5 6 5 C6 3.35 6 1.7 6 0 C6.33 0 6.66 0 7 0 C6.98259766 0.85271484 6.98259766 0.85271484 6.96484375 1.72265625 C6.90776806 6.60670484 7.18043228 11.18503965 8 16 C6.68 16.33 5.36 16.66 4 17 C3.34 15.35 2.68 13.7 2 12 C1.34 13.32 0.68 14.64 0 16 C0 13.36 0 10.72 0 8 C0.66 7.67 1.32 7.34 2 7 C1.34 6.67 0.68 6.34 0 6 C0 4.02 0 2.04 0 0 Z M1 1 C1 2.32 1 3.64 1 5 C1.66 5 2.32 5 3 5 C3 3.68 3 2.36 3 1 C2.34 1 1.68 1 1 1 Z " fill="#969595" transform="translate(20,9)"/>
<path d="M0 0 C0.33 0 0.66 0 1 0 C1 6.27 1 12.54 1 19 C1.99 19.33 2.98 19.66 4 20 C0.5829387 20.88004798 -2.47677498 21.38806536 -6 21 C-9.04955355 18.82626979 -11.26793341 16.32656833 -13 13 C-12.67 12.01 -12.34 11.02 -12 10 C-11.01 11.485 -11.01 11.485 -10 13 C-9.01 13.66 -8.02 14.32 -7 15 C-7 15.66 -7 16.32 -7 17 C-5.02 17 -3.04 17 -1 17 C-0.67 11.39 -0.34 5.78 0 0 Z " fill="#5C2318" transform="translate(16,6)"/>
<path d="M0 0 C-0.35401103 3.18609925 -0.83027036 4.79066678 -2.875 7.3125 C-5 9 -5 9 -8 9 C-8.66 9.99 -9.32 10.98 -10 12 C-10.35288435 8.2064932 -10.28393415 6.44058747 -8.1875 3.1875 C-5.43736579 0.43736579 -3.86388114 0 0 0 Z " fill="#DD743A" transform="translate(14,5)"/>
<path d="M0 0 C0.99 0.33 1.98 0.66 3 1 C3.04254356 2.99954746 3.04080783 5.00041636 3 7 C2 8 2 8 -1.0625 8.0625 C-2.031875 8.041875 -3.00125 8.02125 -4 8 C-4.33 7.01 -4.66 6.02 -5 5 C-5.99 4.34 -6.98 3.68 -8 3 C-8 2.34 -8 1.68 -8 1 C-5.36 1.33 -2.72 1.66 0 2 C0 1.34 0 0.68 0 0 Z " fill="#A62B0E" transform="translate(13,16)"/>
<path d="M0 0 C2.5 1.375 2.5 1.375 5 3 C5 3.66 5 4.32 5 5 C5.99 5.33 6.98 5.66 8 6 C5.21176345 7.0326802 4.1322726 7.04509293 1.25 6.0625 C0.5075 5.711875 -0.235 5.36125 -1 5 C-0.67 3.35 -0.34 1.7 0 0 Z " fill="#DE4717" transform="translate(6,12)"/>
<path d="M0 0 C2.09749995 2.35968744 2.96905704 3.54616994 3.1875 6.75 C3.125625 7.4925 3.06375 8.235 3 9 C1.68 9.33 0.36 9.66 -1 10 C-1.33 8.35 -1.66 6.7 -2 5 C-1.67 5.99 -1.34 6.98 -1 8 C-0.34 8 0.32 8 1 8 C0.67 5.36 0.34 2.72 0 0 Z " fill="#5A585B" transform="translate(25,16)"/>
<path d="M0 0 C0.33 0.99 0.66 1.98 1 3 C-0.65 4.65 -2.3 6.3 -4 8 C-4.66 7.67 -5.32 7.34 -6 7 C-6 6.34 -6 5.68 -6 5 C-5.34 5 -4.68 5 -4 5 C-3.71125 4.360625 -3.4225 3.72125 -3.125 3.0625 C-2 1 -2 1 0 0 Z " fill="#F26B1F" transform="translate(13,6)"/>
<path d="M0 0 C3.37462715 0.54723683 5.08235 1.0549 8 3 C5.39417629 3.93065133 4.35801776 4.14917407 1.75 3.0625 C1.1725 2.711875 0.595 2.36125 0 2 C0 1.34 0 0.68 0 0 Z " fill="#C13310" transform="translate(5,17)"/>
</svg>
